<svg width="25" height="15" viewBox="0 0 25 15" fill="none" xmlns="http://www.w3.org/2000/svg">
<path d="M15.1383 7.21524C14.6811 7.03793 14.6811 6.36074 14.6528 5.88917C14.5385 4.20941 15.1099 1.64498 14.4242 0.554691C13.9387 -0.094198 11.5954 -0.0347794 10.1673 0.053877C9.7669 0.113296 9.28142 0.20101 8.93856 0.378323C8.59571 0.555635 8.25286 0.849898 8.25286 1.11492C8.25286 1.49784 9.11045 1.43937 9.42404 1.94018C9.7669 2.47118 9.7669 3.61994 9.7669 4.56309C9.7669 5.65338 9.59501 7.09829 9.16713 7.15676C8.50977 7.186 8.13857 6.50787 7.79572 6.00706C7.11001 5.03467 6.42431 3.82555 5.90957 2.64661C5.65266 2.0279 5.50912 1.34977 5.13793 1.08474C4.5665 0.671643 3.53795 0.642405 2.53773 0.671643C1.62346 0.700881 0.308729 0.582987 0.0518181 1.14322C-0.148408 1.76193 0.280387 2.3514 0.508955 2.85316C1.68014 5.47607 2.93727 7.77547 4.48056 9.95604C5.90957 11.9895 7.25173 13.6108 9.88027 14.4653C10.6236 14.701 13.8802 15.3792 14.5376 14.4653C14.7661 14.1116 14.7095 13.3156 14.8237 12.7261C14.938 12.1366 15.0807 11.5471 15.6237 11.5179C16.0809 11.4887 16.3378 11.9008 16.624 12.196C16.9385 12.5205 17.1954 12.7855 17.4239 13.0807C17.967 13.6409 18.5384 14.4068 19.2241 14.702C20.1668 15.1151 21.6241 14.9972 22.9955 14.9378C24.11 14.9085 24.91 14.6728 24.996 13.9946C25.0536 13.4636 24.4812 12.6978 24.1384 12.2555C23.2808 11.1652 22.8812 10.8407 21.9094 9.83815C21.4806 9.39581 20.9375 8.92423 20.9375 8.39418C20.9092 8.06974 21.1661 7.77547 21.3946 7.45103C22.3949 5.9184 23.3951 4.82812 24.3093 3.23608C24.5663 2.7645 25.1669 1.67422 24.9384 1.14322C24.6815 0.553749 23.2524 0.730118 22.3665 0.730118C21.2237 0.730118 19.738 0.641462 19.4518 0.87725C18.9087 1.26017 18.6802 1.87982 18.4232 2.46929C17.8518 3.82555 17.0802 5.2101 16.2802 6.24191C15.994 6.59559 15.4519 7.33219 15.1373 7.2143L15.1383 7.21524Z" fill="#607B96"/>
</svg>
