<svg width="20" height="20" viewBox="0 0 20 20" fill="none" xmlns="http://www.w3.org/2000/svg">
<path fill-rule="evenodd" clip-rule="evenodd" d="M15.328 18.4321C13.583 18.4321 12.455 17.6002 11.905 16.5122L13.435 15.626C13.838 16.284 14.361 16.7671 15.288 16.7671C16.066 16.7671 16.563 16.3778 16.563 15.8408C16.563 15.0328 15.485 14.7171 14.724 14.3911C13.368 13.8141 12.468 13.0891 12.468 11.5581C12.468 10.1491 13.542 9.0752 15.221 9.0752C16.415 9.0752 17.275 9.49112 17.892 10.5781L16.429 11.5181C16.107 10.9411 15.758 10.7129 15.221 10.7129C14.67 10.7129 14.321 11.0621 14.321 11.5181C14.321 12.0821 14.67 12.3102 15.476 12.6592C17.165 13.3832 18.443 13.952 18.443 15.814C18.443 17.506 17.114 18.4321 15.328 18.4321ZM11 15.5991C11 17.5461 9.80099 18.5752 8.13599 18.5752C6.63199 18.5752 5.73099 18 5.28799 17H5.27301H5.26599H5.26199L6.79099 15.9312C7.08599 16.4542 7.352 16.8252 7.996 16.8252C8.614 16.8252 9 16.5122 9 15.5732V9H11V15.5991ZM0 20H20V0H0V20Z" fill="#607B96"/>
</svg>
