<svg width="20" height="20" viewBox="0 0 20 20" fill="none" xmlns="http://www.w3.org/2000/svg">
<g clip-path="url(#clip0_2927_961)">
<path d="M14.8431 18.753C14.7688 18.7924 14.775 18.8049 14.8462 18.7687C14.8694 18.7593 14.8888 18.7462 14.9056 18.7305C14.9056 18.7174 14.9056 18.7174 14.8431 18.753ZM14.9931 18.6718C14.9575 18.7012 14.9575 18.7012 15 18.6818C15.0225 18.6687 15.0425 18.6562 15.0425 18.6524C15.0425 18.6355 15.0325 18.6393 14.9931 18.6718ZM15.0906 18.613C15.055 18.6424 15.055 18.6424 15.0975 18.623C15.1206 18.6099 15.14 18.5962 15.14 18.593C15.14 18.5774 15.13 18.5805 15.0906 18.613ZM15.1894 18.5549C15.1537 18.5843 15.1538 18.5843 15.195 18.5643C15.2181 18.5518 15.2375 18.5387 15.2375 18.5349C15.2375 18.5193 15.2275 18.5224 15.1894 18.5549ZM15.3225 18.4668C15.2544 18.5124 15.2306 18.5418 15.2931 18.5093C15.335 18.4837 15.4062 18.4274 15.3937 18.4274C15.3669 18.4374 15.3444 18.4543 15.3219 18.4668H15.3225ZM9.34563 0.00679103C9.3 0.00991603 9.16312 0.022416 9.04312 0.032416C6.20063 0.289916 3.54125 1.81992 1.85563 4.17679C0.92375 5.46867 0.31875 6.96929 0.090625 8.54492C0.01 9.09492 0 9.25742 0 10.003C0 10.748 0.01 10.908 0.090625 11.458C0.635 15.2149 3.3075 18.3687 6.93 19.5374C7.58188 19.7455 8.265 19.8893 9.04312 19.9774C9.34562 20.0099 10.6538 20.0099 10.9563 19.9774C12.3013 19.8274 13.4369 19.4955 14.5606 18.9224C14.7331 18.8349 14.7656 18.8118 14.7425 18.7924C14.1925 18.0668 13.6525 17.3405 13.1119 16.608L11.5138 14.4499L9.51187 11.4843C8.84437 10.4918 8.17437 9.50179 7.49375 8.51929C7.48687 8.51929 7.47812 9.83742 7.47437 11.4449C7.4675 14.2605 7.4675 14.3749 7.43187 14.4399C7.39625 14.518 7.3375 14.583 7.25937 14.6193C7.1975 14.6487 7.14188 14.6549 6.84625 14.6549H6.50813L6.42 14.5999C6.365 14.5643 6.31938 14.5149 6.29 14.4568L6.2475 14.3687L6.25063 10.4493L6.2575 6.52992L6.31938 6.45179C6.35875 6.40367 6.4075 6.36429 6.4625 6.33492C6.54438 6.29554 6.57688 6.28929 6.915 6.28929C7.31188 6.28929 7.3775 6.30492 7.48187 6.41929C8.29187 7.62679 9.09937 8.83742 9.89375 10.0518C11.1931 12.0218 12.9669 14.7099 13.8388 16.0287L15.4244 18.428L15.5025 18.3762C16.2644 17.868 16.9575 17.263 17.5556 16.573C18.8156 15.1305 19.6331 13.3562 19.91 11.4624C19.9906 10.9124 20.0006 10.7493 20.0006 10.0043C20.0006 9.25867 19.9906 9.09929 19.91 8.54929C19.3656 4.79242 16.6931 1.63867 13.0706 0.469291C12.3931 0.254916 11.6962 0.108666 10.9906 0.033666C10.8012 0.014291 9.50875 -0.00883397 9.34625 0.00804103L9.34563 0.00679103ZM13.4375 6.05492C13.5319 6.09992 13.6031 6.18492 13.6356 6.28242C13.6525 6.33492 13.6556 7.42179 13.6525 9.86992L13.6456 13.3849L13.0275 12.4349L12.4056 11.4843V8.93242C12.4056 7.27804 12.4125 6.35054 12.4213 6.30492C12.4506 6.20054 12.5219 6.11304 12.6169 6.05804C12.6944 6.01867 12.7244 6.01554 13.0338 6.01554C13.3231 6.01554 13.3725 6.01867 13.4375 6.05492Z" fill="#607B96"/>
</g>
<defs>
<clipPath id="clip0_2927_961">
<rect width="20" height="20" fill="white"/>
</clipPath>
</defs>
</svg>
