<svg width="20" height="20" viewBox="0 0 20 20" fill="none" xmlns="http://www.w3.org/2000/svg">
<g clip-path="url(#clip0_2927_921)">
<path fill-rule="evenodd" clip-rule="evenodd" d="M18.775 5.20215C18.818 5.52115 18.842 5.86198 18.842 6.22998C18.842 7.98798 18.679 8.08704 15.027 18.644C18 16.91 20 13.689 20 10C20 8.261 19.556 6.62615 18.775 5.20215ZM10.176 10.875L7.175 19.5928C9.2 20.1888 11.346 20.1281 13.321 19.4341C13.294 19.3911 13.27 19.3449 13.25 19.2959L10.176 10.875ZM16.751 9.49512C16.751 8.25912 16.307 7.40282 15.926 6.73682C15.42 5.91282 14.944 5.21609 14.944 4.39209C14.944 3.47309 15.642 2.61719 16.624 2.61719C16.668 2.61719 16.71 2.623 16.753 2.625C14.974 0.995 12.604 0 10 0C6.507 0 3.433 1.79184 1.645 4.50684C2.282 4.52684 3.13699 4.53507 4.95399 4.39307C5.49299 4.36107 5.55601 5.15282 5.01801 5.21582C5.01801 5.21582 4.476 5.28001 3.873 5.31201L7.515 16.144L9.703 9.58008L8.145 5.31104C7.607 5.28004 7.097 5.21582 7.097 5.21582C6.558 5.18382 6.621 4.36009 7.16 4.39209C9.227 4.55109 10.285 4.56309 12.459 4.39209C12.998 4.36009 13.062 5.15182 12.523 5.21582C12.523 5.21582 11.98 5.28004 11.378 5.31104L14.992 16.061C16.419 11.293 16.751 10.4951 16.751 9.49512ZM0 10C0 13.958 2.3 17.379 5.636 19L0.865997 5.93018C0.310997 7.17418 0 8.55 0 10Z" fill="#607B96"/>
</g>
<defs>
<clipPath id="clip0_2927_921">
<rect width="20" height="20" fill="white"/>
</clipPath>
</defs>
</svg>
